<svg width="42" height="40" viewBox="0 0 42 40" fill="none" xmlns="http://www.w3.org/2000/svg">
<path d="M20.0554 1.02216C20.3666 0.126558 21.6332 0.126466 21.9445 1.02202L26.2813 13.496C26.4186 13.8911 26.7872 14.1589 27.2054 14.1675L40.4107 14.4379C41.3586 14.4573 41.7498 15.6618 40.9943 16.2345L30.4694 24.2138C30.1361 24.4665 29.9952 24.8999 30.1163 25.3002L33.9409 37.9421C34.2154 38.8495 33.1908 39.594 32.4126 39.0525L21.5691 31.5078C21.2257 31.2689 20.77 31.2689 20.4267 31.5078L9.5872 39.0518C8.80897 39.5935 7.78425 38.849 8.0588 37.9415L11.8832 25.3002C12.0043 24.8999 11.8635 24.4665 11.5302 24.2138L1.0071 16.2348C0.251613 15.662 0.643022 14.4575 1.59093 14.4382L14.7958 14.1693C15.214 14.1608 15.5828 13.8928 15.7201 13.4977L20.0554 1.02216Z" fill="url(#paint0_linear_3208_3545)"/>
<defs>
<linearGradient id="paint0_linear_3208_3545" x1="21.0007" y1="-1.69543" x2="21.0007" y2="40.6954" gradientUnits="userSpaceOnUse">
<stop offset="0.31" stop-color="#FFF2C4"/>
<stop offset="0.93" stop-color="#FAC502"/>
</linearGradient>
</defs>
</svg>
